<?xml version="1.0" standalone="no"?>
<!DOCTYPE svg PUBLIC "-//W3C//DTD SVG 20010904//EN"
 "http://www.w3.org/TR/2001/REC-SVG-20010904/DTD/svg10.dtd">
<svg version="1.0" xmlns="http://www.w3.org/2000/svg"
 width="347.000000pt" height="347.000000pt" viewBox="0 0 347.000000 347.000000"
 preserveAspectRatio="xMidYMid meet">
<metadata>
Created by potrace 1.14, written by Peter Selinger 2001-2017
</metadata>
<g transform="translate(0.000000,347.000000) scale(0.100000,-0.100000)"
fill="#000000" stroke="none">
<path d="M0 1735 l0 -1735 1735 0 1735 0 0 1735 0 1735 -1735 0 -1735 0 0
-1735z m1730 1405 l0 -80 -410 0 -410 0 0 80 0 80 410 0 410 0 0 -80z m-902
-1237 l-3 -248 -247 -3 -248 -2 0 -165 0 -165 -85 0 -85 0 0 415 0 415 335 0
335 0 -2 -247z m822 -168 l0 -415 -330 0 -330 0 0 415 0 415 330 0 330 0 0
-415z m830 0 l0 -415 -85 0 -85 0 0 335 0 335 -160 0 -160 0 -2 -332 -3 -333
-82 -3 -83 -3 0 416 0 415 330 0 330 0 0 -415z m830 335 l0 -80 -250 0 -250 0
0 -255 0 -255 163 2 162 3 3 83 3 82 -81 0 -80 0 0 85 0 85 163 -2 162 -3 3
-247 2 -248 -335 0 -335 0 0 415 0 415 335 0 335 0 0 -80z m-590 -1405 l0 -85
-80 0 -80 0 0 78 c0 43 3 82 7 85 3 4 39 7 80 7 l73 0 0 -85z m258 -417 l-3
-83 -412 -3 -413 -2 0 85 0 85 415 0 416 0 -3 -82z"/>
<path d="M337 1983 c-4 -3 -7 -42 -7 -85 l0 -78 165 0 165 0 0 85 0 85 -158 0
c-87 0 -162 -3 -165 -7z"/>
<path d="M1160 1735 l0 -255 160 0 160 0 0 255 0 255 -160 0 -160 0 0 -255z"/>
</g>
</svg>
